<?xml version="1.0" encoding="UTF-8"?>
<svg width="1200pt" height="1200pt" version="1.1" viewBox="0 0 1200 1200" xmlns="http://www.w3.org/2000/svg">
 <path d="m75.352 118.08h228.98c27.375 0 49.57 27.375 49.57 49.57v51.258c0 27.375-22.195 49.57-49.57 49.57h-228.98c-27.375 0-49.57-27.375-49.57-49.57v-51.258c0-27.375 22.195-49.57 49.57-49.57z"/>
 <path d="m485.51 118.08h228.98c27.375 0 49.57 27.375 49.57 49.57v51.258c0 27.375-22.195 49.57-49.57 49.57h-228.98c-27.375 0-49.57-27.375-49.57-49.57v-51.258c0-27.375 22.195-49.57 49.57-49.57z"/>
 <path d="m895.66 118.08h228.98c27.375 0 49.57 27.375 49.57 49.57v51.258c0 27.375-22.195 49.57-49.57 49.57h-228.98c-27.375 0-49.57-27.375-49.57-49.57v-51.258c0-27.375 22.195-49.57 49.57-49.57z"/>
 <path d="m75.352 316.31h228.98c27.375 0 49.57 27.375 49.57 49.57v119.6c0 27.375-22.195 49.57-49.57 49.57h-228.98c-27.375 0-49.57-27.375-49.57-49.57v-119.6c0-27.375 22.195-49.57 49.57-49.57z"/>
 <path d="m485.51 316.31h228.98c27.375 0 49.57 27.375 49.57 49.57v119.6c0 27.375-22.195 49.57-49.57 49.57h-228.98c-27.375 0-49.57-27.375-49.57-49.57v-119.6c0-27.375 22.195-49.57 49.57-49.57z"/>
 <path d="m895.66 316.31h228.98c27.375 0 49.57 27.375 49.57 49.57v119.6c0 27.375-22.195 49.57-49.57 49.57h-228.98c-27.375 0-49.57-27.375-49.57-49.57v-119.6c0-27.375 22.195-49.57 49.57-49.57z"/>
 <path d="m75.352 589.76h228.98c27.375 0 49.57 27.375 49.57 49.57v119.6c0 27.375-22.195 49.57-49.57 49.57h-228.98c-27.375 0-49.57-27.375-49.57-49.57v-119.6c0-27.375 22.195-49.57 49.57-49.57z"/>
 <path d="m485.51 589.76h228.98c27.375 0 49.57 27.375 49.57 49.57v119.6c0 27.375-22.195 49.57-49.57 49.57h-228.98c-27.375 0-49.57-27.375-49.57-49.57v-119.6c0-27.375 22.195-49.57 49.57-49.57z"/>
 <path d="m895.66 589.76h228.98c27.375 0 49.57 27.375 49.57 49.57v119.6c0 27.375-22.195 49.57-49.57 49.57h-228.98c-27.375 0-49.57-27.375-49.57-49.57v-119.6c0-27.375 22.195-49.57 49.57-49.57z"/>
 <path d="m75.352 863.18h228.98c27.375 0 49.57 27.375 49.57 49.57v119.6c0 27.375-22.195 49.57-49.57 49.57h-228.98c-27.375 0-49.57-27.375-49.57-49.57v-119.6c0-27.375 22.195-49.57 49.57-49.57z"/>
 <path d="m485.51 863.18h228.98c27.375 0 49.57 27.375 49.57 49.57v119.6c0 27.375-22.195 49.57-49.57 49.57h-228.98c-27.375 0-49.57-27.375-49.57-49.57v-119.6c0-27.375 22.195-49.57 49.57-49.57z"/>
 <path d="m895.66 863.18h228.98c27.375 0 49.57 27.375 49.57 49.57v119.6c0 27.375-22.195 49.57-49.57 49.57h-228.98c-27.375 0-49.57-27.375-49.57-49.57v-119.6c0-27.375 22.195-49.57 49.57-49.57z"/>
</svg>
