<svg clip-rule="evenodd" fill-rule="evenodd" height="512" stroke-linejoin="round" stroke-miterlimit="2" viewBox="0 0 24 24" width="512" xmlns="http://www.w3.org/2000/svg"><g id="Icon"><path d="m3.25 11.754v-.754c0-.966.783-1.75 1.75-1.75h14c.967 0 1.75.784 1.75 1.75v.754c-.05-.003-.1-.004-.15-.004h-17.2c-.05 0-.1.001-.15.004z"/><path d="m4.837 8.255c.042-.52.133-1.087.313-1.609.418-1.216 1.267-2.196 2.85-2.196 1.482 0 2.458-.309 2.944-.955.285-.38.369-.865.31-1.415-.024-.232.06-.462.229-.623s.402-.234.633-.198c0 0 5.932.906 6.901 6.991-.006 0-.011 0-.017 0h-14c-.055 0-.109.002-.163.005z"/><path d="m22.35 14.5v5.5c0 1.519-1.231 2.75-2.75 2.75h-15.2c-1.519 0-2.75-1.231-2.75-2.75v-5.5c0-.966.783-1.75 1.75-1.75h17.2c.967 0 1.75.784 1.75 1.75zm-12.35 4h4c.414 0 .75-.336.75-.75s-.336-.75-.75-.75h-4c-.414 0-.75.336-.75.75s.336.75.75.75z"/></g></svg>