<svg id="_24" height="512" viewBox="0 0 32 32" width="512" xmlns="http://www.w3.org/2000/svg" data-name="24"><rect height="4.267" rx="1" width="8.533" x="9.907"/><path d="m25.9921 5.0667c-.2027.1813-.448.2667-.6934.2667-.2986 0-.5973-.128-.8107-.3627l-1.536-1.7706h-2.3786v-2.1334h2.8587c.3093 0 .5973.128.8.3626l1.8667 2.1333c.384.448.3413 1.1201-.1066 1.504z"/><path d="m12.04 6.4h4.267v2.133h-4.267z"/><path d="m22.7067 10.6667v2.1333h-17.0666v-2.1333c0-1.1734.96-2.1333 2.1333-2.1333h12.8c1.1733 0 2.1333.96 2.1333 2.1333z"/><path d="m5.6401 14.9333v10.6667h17.0666v-10.6667zm10.6667 6.4h-1.0667v1.0667c0 .5867-.48 1.0667-1.0667 1.0667s-1.0667-.48-1.0667-1.0667v-1.0667h-1.0667c-.5867 0-1.0667-.48-1.0667-1.0667s.48-1.0667 1.0667-1.0667h1.0667v-1.0667c0-.5867.48-1.0667 1.0667-1.0667s1.0667.48 1.0667 1.0667v1.0667h1.0667c.5867 0 1.0667.48 1.0667 1.0667s-.48 1.0667-1.0667 1.0667z"/><path d="m5.6401 27.7333h17.0666v2.1333c0 1.1733-.96 2.1333-2.1333 2.1333h-12.8c-1.1733 0-2.1333-.96-2.1333-2.1333z"/></svg>