<svg id="Capa_1" enable-background="new 0 0 512 512" height="512" viewBox="0 0 512 512" width="512" xmlns="http://www.w3.org/2000/svg"><g><path d="m507.606 60.393-56-56c-5.857-5.858-15.355-5.858-21.213 0-5.858 5.857-5.858 15.355 0 21.213l17.394 17.394-67.787 67.787-57.394-57.393c-5.857-5.858-15.355-5.858-21.213 0-5.858 5.857-5.858 15.355 0 21.213l21.394 21.393-192.18 192.18c-17.585 17.584-17.588 46.051-.001 63.639l29.574 29.574c17.585 17.586 46.051 17.59 63.64 0l13.68-13.681-14.107-14.107c-5.858-5.857-5.858-15.355 0-21.213 5.857-5.858 15.355-5.858 21.213 0l14.107 14.106 18.787-18.787-14.107-14.107c-5.858-5.857-5.858-15.355 0-21.213 5.857-5.858 15.355-5.858 21.213 0l14.107 14.106 18.787-18.787-14.107-14.107c-5.858-5.857-5.858-15.355 0-21.213 5.857-5.857 15.355-5.857 21.213 0l14.107 14.106 18.787-18.787-14.106-14.106c-5.858-5.857-5.858-15.355 0-21.213 5.857-5.857 15.355-5.857 21.213 0l14.107 14.106 37.286-37.283 21.394 21.394c5.858 5.858 15.355 5.858 21.213 0 5.858-5.857 5.858-15.355 0-21.213l-57.394-57.394 67.787-67.787 17.394 17.393c5.858 5.858 15.355 5.858 21.213 0 5.857-5.857 5.857-15.355-.001-21.213z"/><path d="m73.394 387.393c-2.814 2.813-4.394 6.628-4.394 10.607v23.787l-64.607 64.606c-5.858 5.857-5.858 15.355 0 21.213s15.355 5.858 21.213 0l64.607-64.606h23.787c3.978 0 7.794-1.58 10.606-4.394l25.18-25.18-51.212-51.213z"/></g></svg>