<svg id="Layer_1" enable-background="new 0 0 468 468" height="512" viewBox="0 0 468 468" width="512" xmlns="http://www.w3.org/2000/svg"><g><g><path d="m439 0h-410c-15.991 0-29 13.009-29 29v410c0 15.991 13.009 29 29 29h410c15.991 0 29-13.009 29-29v-410c0-15.991-13.009-29-29-29zm-116 30h115v69h-115zm-30 69h-118v-69h118zm-263-69h115v69h-115zm293 408v-278h-30v278h-263v-309h115v281h30v-281h263v309z"/><path d="m57 48h62v30h-62z"/><path d="m350 48h62v30h-62z"/></g><g><path d="m202 180h62v30h-62z"/><path d="m202 269h62v30h-62z"/><path d="m202 357h62v30h-62z"/></g><g><path d="m203 48h62v30h-62z"/><path d="m56 180h62v30h-62z"/><path d="m349 180h62v30h-62z"/><path d="m349 270h62v30h-62z"/><path d="m56 270h62v30h-62z"/></g></g></svg>