<?xml version="1.0" encoding="UTF-8"?>
<svg width="1200pt" height="1200pt" version="1.1" viewBox="0 0 1200 1200" xmlns="http://www.w3.org/2000/svg">
 <path d="m1131.2 884.64c1.8008-0.71875 2.6406-0.83984 5.2812-1.9219 2.6406-1.0781 4.6797-1.9219 7.0781-3h0.003906c4.625-2.332 9.043-5.0625 13.199-8.1602 12.93-9.8672 22.68-23.316 28.031-38.676 5.3555-15.359 6.082-31.953 2.0898-47.723l-2.3984-7.9219-1.8008-5.1602-3.6016-10.078-30.121-82.922c-20.641-56.281-42.359-114.24-64.32-171.96-21.961-57.719-44.398-115.68-66.359-171.12l-16.32-41.762-8.1602-20.398-4.0781-9.8398-2.0391-5.0391-3.7227-7.6797c-7.3906-14.848-19.055-27.145-33.488-35.312-14.434-8.1719-30.98-11.836-47.512-10.527-5.2695 0.45703-10.492 1.3828-15.602 2.7578l-7.4414 2.5195-5.0391 2.0391c-100.08 41.039-185.28 77.879-240.84 105-3.8398 1.9219-4.1992 10.32-0.60156 18.719 3.6016 8.3984 8.2812 12 12 11.281 60-16.68 147.72-45.602 249.84-81.359l4.5586-1.5586 2.2812-0.60156h4.6836c3.1211-0.035156 6.2188 0.53516 9.1211 1.6836 5.7344 2.1797 10.414 6.4727 13.078 12l29.16 80.281c20.641 56.281 42.238 114.24 64.199 172.08 21.961 57.84 44.281 115.56 66.121 171.36l32.52 81.961 3.9609 9.9609 2.7617 7.0781c0.92188 2.9453 1.25 6.0469 0.95703 9.1211-0.58203 6.293-3.543 12.129-8.2773 16.316-1.2188 1.0078-2.5 1.9297-3.8398 2.7617l-2.1602 1.0781s-2.7617 1.1992-4.0781 1.8008l-18.238 7.5586-35.281 14.762-65.039 27.719c-31.68 13.801-60 26.398-84 37.801-1.0781-138.84-2.7617-269.64-5.3984-386.16h-0.007812c-0.64453-21.738-10.188-42.258-26.398-56.758-7.7812-6.8281-16.832-12.047-26.641-15.359-4.7891-1.6367-9.7344-2.7617-14.758-3.3594-2.4766-0.17578-4.9648-0.17578-7.4414 0h-6.3594l-77.762 2.3984c-49.199 1.6797-92.762 3.4805-129.48 5.5195-3.8789 0.83984-7.2891 3.1406-9.5234 6.4219-2.2344 3.2852-3.1172 7.3008-2.4766 11.219-0.17969 3.5742 0.93359 7.0977 3.1367 9.918 2.2031 2.8203 5.3516 4.7539 8.8633 5.4414 36.719 2.0391 80.398 3.8398 129.48 5.5195l77.762 2.3984h6.6016l-0.003906 0.003907c1.8164 0.3125 3.5859 0.83594 5.2812 1.5586 3.4492 1.418 6.5898 3.4961 9.2422 6.1211 5.3945 5.3047 8.3867 12.59 8.2773 20.16-2.3984 116.64-4.3203 252.84-5.3984 394.8l-0.60156 108v53.398c-0.35156 7.2422-4.4414 13.785-10.801 17.277-3.2539 1.7109-6.8828 2.5781-10.559 2.5234h-272.64c-3.4805 0-6.8398-0.96094-10.199-1.3203s-6.6016-1.6797-9.9609-2.3984v-0.003906c-19.586-5.8164-36.984-17.359-49.965-33.137-12.98-15.781-20.945-35.082-22.875-55.422v-10.441-38.758l-2.3984-100.32v-0.83984c-0.19141-7.5664-3.3594-14.75-8.8242-19.988-5.4609-5.2344-12.77-8.1016-20.336-7.9727l-138.72 2.3984c-34.527 1.4141-67.699-13.527-89.523-40.32-14.746-17.996-23.512-40.145-25.078-63.359-0.71875-7.4414-0.71875-16.922-1.1992-24.961-1.3203-33.238-2.6406-63.48-4.1992-90v0.003907c-0.76172-3.8555-2.9883-7.2617-6.2109-9.5-3.2266-2.2383-7.1953-3.1367-11.07-2.5-3.5117-0.14062-6.957 0.99609-9.6953 3.2031-2.7344 2.207-4.5781 5.332-5.1836 8.7969-1.4414 26.641-2.8789 56.762-4.1992 90 0 8.6406-0.83984 16.199-0.71875 26.16h-0.003906c-0.046875 10.312 0.95703 20.605 3 30.719 9.418 45.859 38.934 85.066 80.398 106.8 22.703 11.902 47.926 18.199 73.562 18.359l109.08 1.9219-0.96094 72v25.68l0.003906 12.598v15.48c2.4805 33.102 14.898 64.68 35.625 90.609 20.727 25.926 48.793 44.996 80.531 54.711 5.3984 1.4414 10.801 3 16.32 4.0781 5.5195 1.0781 11.16 1.9219 16.68 2.3984 5.5195 0.48047 12 0.71875 16.441 0.83984h261.72l-0.003907 0.003906c14.816-0.019532 29.383-3.7773 42.363-10.922 26.32-14.637 43.141-41.906 44.398-72v-55.922-80.16c28.32-8.1602 62.16-18.602 100.68-31.199l67.078-22.441 36-12z"/>
 <path d="m80.879 204c6.1836-13.52 14.266-26.086 24-37.32 20.035-23.57 43.355-44.141 69.242-61.078 21.973-14.906 46.035-26.473 71.398-34.32 9.5195-2.7773 19.367-4.2695 29.281-4.4414 6.332-0.26953 12.625 1.1367 18.238 4.082 5.8555-1.7891 11.312-4.6836 16.082-8.5234 6.8398-4.8008 10.441-10.801 8.2812-13.801l-0.003906 0.003906c-9.1016-11.262-21.82-19.023-36-21.961-14.574-3.4453-29.637-4.3359-44.52-2.6406-32.438 4.625-63.73 15.242-92.277 31.32-33.094 17.945-62.914 41.355-88.203 69.238-14.691 15.742-26.836 33.676-36 53.16-5.4492 11.645-8.8164 24.156-9.957 36.961-1.7969 16.914 2.4531 33.922 12 48 9.9492 13.668 24.395 23.395 40.797 27.48 12.43 3.332 25.344 4.4688 38.16 3.3594 7.8281-0.64844 15.605-1.8125 23.281-3.4805 17.312 50.062 23.258 103.36 17.398 156v9.7227c-0.41797 15.309 3.9961 30.363 12.609 43.027 8.6172 12.664 20.996 22.297 35.391 27.531 4.2852 1.5352 8.707 2.6602 13.203 3.3594 1.9023 0.34766 3.8281 0.58594 5.7578 0.71875h5.1602c6.5938 0.43359 13.207 0.43359 19.801 0 12.656-0.73047 25.227-2.5742 37.559-5.5195 39.73-9.7773 77.59-25.988 112.08-48 17.281 46.559 69.238 114 102.96 128.52 5.3711-2.4805 10.41-5.625 15-9.3594 4.4141-2.7344 8.4492-6.043 12-9.8398-3.2383-36-50.281-106.32-89.039-137.64h-0.003906c32.254-24.59 60.301-54.254 83.043-87.84 7.0039-10.566 13.07-21.727 18.117-33.359 2.6797-6.0469 4.9609-12.258 6.8398-18.598 0.96094-3.6016 1.8008-5.8789 2.6406-10.559v-0.003906c3.0078-15.238 1.0781-31.035-5.5039-45.105-6.5781-14.066-17.473-25.676-31.094-33.133-3.8477-2.0312-7.8633-3.7148-12-5.0391l-6-1.8008-3.4805-0.83984c-56.723-14.141-109.23-41.668-153.12-80.281 4.3047-10.152 7.1719-20.855 8.5195-31.801 1.8086-13.977-1.1953-28.156-8.5195-40.199-2.2812-3.3594-10.078-1.1992-17.281 4.3203-7.1992 5.5195-11.398 9.4805-11.16 10.559 2.2812 9-3.2383 26.16-16.801 44.762h0.003907c-16.133 21.109-35.301 39.711-56.883 55.199-24.793 18.52-52.109 33.391-81.117 44.16-13.879 5.1953-28.426 8.3867-43.203 9.4805-5.5156 0.51172-11.074 0.066406-16.438-1.3203-1.6484-0.35156-3.1992-1.0469-4.5625-2.0391-0.3125-1.625-0.3125-3.2969 0-4.9219 0.48047-5.6094 1.9414-11.094 4.3203-16.199zm177.6 15c18.234-15.793 34.367-33.859 48-53.762 15.113 18.363 32.262 34.953 51.121 49.441 31.242 24.051 66.566 42.262 104.28 53.762l3.7188 1.1992h1.2031c0.75391 0.38281 1.4727 0.82422 2.1602 1.3203 1.3047 0.96484 2.4414 2.1406 3.3594 3.4805 1.8594 2.5195 2.7148 5.6406 2.3984 8.7578 0.066406 0.71875 0.066406 1.4414 0 2.1602 0 0-1.0781 3.2383-1.5586 4.8008-1.3555 3.8984-2.9609 7.707-4.8008 11.398-3.9492 8.3828-8.6055 16.41-13.918 24-24.43 32.754-54.207 61.152-88.082 84-33.27 23.945-70.355 42.078-109.68 53.641-8.8008 2.4336-17.793 4.1172-26.879 5.0391-3.9961 0.25391-8.0039 0.25391-12 0h-7.2031 0.003906c-3.0938-0.75-5.7891-2.6328-7.5625-5.2773-0.92187-1.3555-1.6133-2.8555-2.0391-4.4414-0.070312-0.83984-0.070312-1.6797 0-2.5195 0.035156-0.4375 0.035156-0.87891 0-1.3203v-3.9609c2.1289-39.371-2.8711-78.805-14.762-116.4-6.1875-19.25-14.223-37.859-24-55.559l2.7617-0.96094c34.223-14.352 65.816-34.305 93.48-59.039z"/>
</svg>
