<svg id="Capa_1" enable-background="new 0 0 510.999 510.999" height="512" viewBox="0 0 510.999 510.999" width="512" xmlns="http://www.w3.org/2000/svg"><g><path d="m279.5 415.999h-136c-26.651 0-32.96-34.081-33.204-35.466-.931-5.583-4.925-10.168-10.328-11.853-5.406-1.688-11.296-.188-15.236 3.877-1.479 1.525-36.231 37.819-36.231 77.442 0 21.157 8.66 37.913 25.042 48.455 12.937 8.324 30.418 12.545 51.958 12.545h210c8.284 0 15-6.716 15-15v-9c-.001-39.15-31.852-71-71.001-71z"/><path d="m458.106 140.392-136-136c-2.993-2.993-7.108-4.573-11.339-4.376-4.228.207-8.171 2.19-10.858 5.461l-12.951 15.767 154.296 154.297 15.767-12.951c3.271-2.687 5.254-6.63 5.461-10.858s-1.383-8.346-4.376-11.34z"/><path d="m134.326 207.056c-15.421 18.774-14.095 45.887 3.085 63.066l54.965 54.965c9.171 9.171 21.17 13.823 33.222 13.823 10.526 0 21.092-3.55 29.844-10.739l162.519-133.498-150.137-150.137zm144.567-44.664c5.857-5.857 15.355-5.857 21.213 0s5.858 15.355 0 21.213l-9.393 9.394 9.393 9.394c5.858 5.857 5.858 15.355 0 21.213-2.929 2.929-6.767 4.394-10.606 4.394s-7.678-1.465-10.606-4.394l-9.394-9.393-9.394 9.393c-2.929 2.929-6.767 4.394-10.606 4.394s-7.678-1.465-10.606-4.394c-5.858-5.857-5.858-15.355 0-21.213l9.394-9.394-9.394-9.394c-5.858-5.857-5.858-15.355 0-21.213 5.857-5.857 15.355-5.857 21.213 0l9.394 9.394z"/><path d="m130.893 359.605c2.929 2.929 6.768 4.394 10.606 4.394 3.839 0 7.678-1.465 10.606-4.394l16.181-16.181-49.213-49.213-16.18 16.181c-5.858 5.857-5.858 15.355 0 21.213z"/></g></svg>