<svg id="Layer_3" height="512" viewBox="0 0 48 48" width="512" xmlns="http://www.w3.org/2000/svg" data-name="Layer 3"><path d="m31.47 13.15-.96-.55a3 3 0 0 1 -1.51-2.6v-2.18a3.01 3.01 0 0 0 2-2.82v-2a3.009 3.009 0 0 0 -3-3h-8a3.009 3.009 0 0 0 -3 3v2a3.01 3.01 0 0 0 2 2.82v2.18a3 3 0 0 1 -1.51 2.6l-.96.55a9.027 9.027 0 0 0 -4.53 7.81v22.04c0 2.76 1.97 5 4.38 5h15.24c2.41 0 4.38-2.24 4.38-5v-22.04a9.027 9.027 0 0 0 -4.53-7.81zm2.53 29.85c0 1.65-1.07 3-2.38 3h-15.24c-1.31 0-2.38-1.35-2.38-3v-3h20zm0-21h-20v-1.04a7 7 0 0 1 3.53-6.07l.95-.55a5.02 5.02 0 0 0 2.52-4.34v-2h6v2a5.02 5.02 0 0 0 2.52 4.34l.95.55a7 7 0 0 1 3.53 6.07z"/></svg>