<svg id="Capa_1" enable-background="new 0 0 512 512" height="512" viewBox="0 0 512 512" width="512" xmlns="http://www.w3.org/2000/svg"><g><path d="m111 401h290v-290h-290zm241.01-256c8.377 0 15.01 6.794 15.01 15 0 8.284-6.715 15-15 15-8.284 0-15.005-6.716-15.005-15s6.711-15 14.995-15zm0 64c8.377 0 15.01 6.794 15.01 15 0 8.284-6.715 15-15 15-8.284 0-15.005-6.716-15.005-15s6.711-15 14.995-15zm0 64c8.377 0 15.01 6.794 15.01 15 0 8.284-6.715 15-15 15-8.284 0-15.005-6.716-15.005-15s6.711-15 14.995-15zm0 64c8.377 0 15.01 6.794 15.01 15 0 8.284-6.715 15-15 15-8.284 0-15.005-6.716-15.005-15s6.711-15 14.995-15zm-64-192c8.377 0 15.01 6.794 15.01 15 0 8.284-6.715 15-15 15-8.284 0-15.005-6.716-15.005-15s6.711-15 14.995-15zm0 64c8.377 0 15.01 6.794 15.01 15 0 8.284-6.715 15-15 15-8.284 0-15.005-6.716-15.005-15s6.711-15 14.995-15zm0 64c8.377 0 15.01 6.794 15.01 15 0 8.284-6.715 15-15 15-8.284 0-15.005-6.716-15.005-15s6.711-15 14.995-15zm0 64c8.377 0 15.01 6.794 15.01 15 0 8.284-6.715 15-15 15-8.284 0-15.005-6.716-15.005-15s6.711-15 14.995-15zm-64-192c8.377 0 15.01 6.794 15.01 15 0 8.284-6.715 15-15 15-8.284 0-15.005-6.716-15.005-15s6.711-15 14.995-15zm0 64c8.377 0 15.01 6.794 15.01 15 0 8.284-6.715 15-15 15-8.284 0-15.005-6.716-15.005-15s6.711-15 14.995-15zm0 64c8.377 0 15.01 6.794 15.01 15 0 8.284-6.715 15-15 15-8.284 0-15.005-6.716-15.005-15s6.711-15 14.995-15zm0 64c8.377 0 15.01 6.794 15.01 15 0 8.284-6.715 15-15 15-8.284 0-15.005-6.716-15.005-15s6.711-15 14.995-15zm-64-192c8.377 0 15.01 6.794 15.01 15 0 8.284-6.715 15-15 15-8.284 0-15.005-6.716-15.005-15s6.711-15 14.995-15zm0 64c8.377 0 15.01 6.794 15.01 15 0 8.284-6.715 15-15 15-8.284 0-15.005-6.716-15.005-15s6.711-15 14.995-15zm0 64c8.377 0 15.01 6.794 15.01 15 0 8.284-6.715 15-15 15-8.284 0-15.005-6.716-15.005-15s6.711-15 14.995-15zm0 64c8.377 0 15.01 6.794 15.01 15 0 8.284-6.715 15-15 15-8.284 0-15.005-6.716-15.005-15s6.711-15 14.995-15z"/><path d="m417 0h-322c-52.383 0-95 42.617-95 95v322c0 52.383 42.617 95 95 95h322c52.383 0 95-42.617 95-95v-322c0-52.383-42.617-95-95-95zm14 401c0 16.542-13.458 30-30 30h-290c-16.542 0-30-13.458-30-30v-290c0-16.542 13.458-30 30-30h290c16.542 0 30 13.458 30 30z"/></g></svg>