<svg id="Business_Plan" viewBox="0 0 64 64" xmlns="http://www.w3.org/2000/svg" data-name="Business Plan"><path d="m46 8h-6.25c-.89-3.45-4.03-6-7.75-6s-6.86 2.55-7.75 6h-6.25c-5.51 0-10 4.49-10 10v34c0 5.51 4.49 10 10 10h28c5.51 0 10-4.49 10-10v-34c0-5.51-4.49-10-10-10zm-29.33 33.77c.82-.73 2.09-.66 2.82.16l1.79 2.01 5.18-6.22c.71-.85 1.97-.96 2.82-.26.85.71.96 1.97.26 2.82l-6.67 8c-.37.45-.92.71-1.5.72h-.04c-.57 0-1.11-.24-1.49-.67l-3.33-3.73c-.74-.83-.67-2.09.16-2.83zm2.82-17.84 1.79 2.01 5.18-6.22c.71-.85 1.97-.96 2.82-.26.85.71.96 1.97.26 2.82l-6.67 8c-.37.45-.92.71-1.5.72h-.04c-.57 0-1.11-.24-1.49-.67l-3.33-3.73c-.74-.83-.67-2.09.16-2.83.82-.73 2.09-.66 2.82.16zm12.51 20.07c0-1.1.9-2 2-2h12c1.1 0 2 .9 2 2s-.9 2-2 2h-12c-1.1 0-2-.9-2-2zm14-16h-12c-1.1 0-2-.9-2-2s.9-2 2-2h12c1.1 0 2 .9 2 2s-.9 2-2 2z"/></svg>