<svg id="progress_x5F_bar" enable-background="new 0 0 480 480" height="512" viewBox="0 0 480 480" width="512" xmlns="http://www.w3.org/2000/svg"><g id="icon_3_"><path d="m30 340c0 38.4 31.1 69.5 69.5 69.5h281c38.4 0 69.5-31.1 69.5-69.5 0-38.4-31.1-69.5-69.5-69.5h-281c-38.4 0-69.5 31.1-69.5 69.5zm203.5 0c0-14.9 12.1-27 27-27h120c14.9 0 27 12.1 27 27 0 14.9-12.1 27-27 27h-120c-14.9 0-27-12.1-27-27z"/><path d="m30 140c0 38.4 31.1 69.5 69.5 69.5h281c38.4 0 69.5-31.1 69.5-69.5 0-38.4-31.1-69.5-69.5-69.5h-281c-38.4 0-69.5 31.1-69.5 69.5zm99.5 0c0-14.9 12.1-27 27-27h224c14.9 0 27 12.1 27 27 0 14.9-12.1 27-27 27h-224c-14.9 0-27-12.1-27-27z"/></g></svg>