<svg clip-rule="evenodd" fill-rule="evenodd" height="600" image-rendering="optimizeQuality" shape-rendering="geometricPrecision" text-rendering="geometricPrecision" viewBox="0 0 600 600" width="600" xmlns="http://www.w3.org/2000/svg"><g id="Layer_x0020_1"><path d="m229 556c-8 0-14-4-14-13 0-20 13-14 13-32 0-12-10-22-23-22-19 0-30 23-18 36 4 3 8 7 8 18 0 14-13 13-22 12-17 0-31-3-49-5-14-1-27-12-25-27 3-24 4-41 5-55-5 2-7 11-25 11-19 0-35-16-35-35 0-30 37-45 56-26 2 1 3 2 4 3-1-15-2-32-5-56-2-15 11-25 25-27 20-2 31-4 51-5 10-1 20-1 20 12 0 21-13 14-13 32 0 12 11 23 23 23 19 0 30-24 18-36-4-4-8-8-8-19 0-16 15-13 25-12 16 1 29 3 46 5 14 2 27 12 25 27-3 24-4 41-5 56 5-3 7-11 25-11 19 0 35 15 35 34 0 30-37 46-56 27-2-2-3-3-4-3 1 14 2 31 5 55 2 15-11 26-25 27-18 2-40 6-57 6zm215-105c-30 0-45-37-26-56 1-2 2-3 3-4-15 1-32 2-56 5-15 2-26-11-27-25-2-20-4-31-5-51-1-9-1-20 12-20 21 0 14 13 32 13 12 0 22-10 22-23 0-19-23-30-35-18-4 4-8 8-19 8-15 0-13-14-12-24 1-17 3-29 5-47 1-13 12-27 27-25 24 3 41 4 56 5-3-5-12-7-12-25 0-19 16-35 35-35 30 0 46 37 26 56-1 2-2 3-2 4 14-1 31-2 55-5 15-2 26 11 27 25l6 50c0 10 1 21-13 21-20 0-14-13-32-13-12 0-22 11-22 23 0 19 23 30 36 18 3-4 7-8 18-8 14 0 13 13 12 22 0 18-3 31-5 49-1 14-12 27-27 25-24-3-41-4-55-5 2 5 11 8 11 25 0 19-16 35-35 35zm-262-128c-7 0-14-3-18-9-15-19-26-32-36-43-1 6 3 14-10 26-13 14-35 14-49 0-21-21-5-58 22-58 1 0 3 0 4-1-11-10-24-20-43-36-11-9-10-26-1-37 13-15 19-25 32-39 7-7 14-15 23-6 15 15 1 19 14 32 9 9 23 9 32 0 13-14 4-38-13-38-5 0-11 0-19-8-10-11 1-19 8-25 13-12 23-19 37-30 11-8 28-10 37 1 16 19 26 32 36 43 2-5-3-13 10-26 22-21 59-6 59 25 0 9-3 18-10 24-13 13-20 9-26 10 11 10 24 21 43 36 12 9 10 26 1 37l-31 39c-7 8-14 15-23 6-15-15-2-19-14-31-9-9-23-9-32 0-14 13-5 37 12 38 5 0 11 0 19 8 10 10 0 17-7 24-13 11-24 19-38 30-5 4-13 8-19 8z"/></g></svg>