<svg viewBox="-64 0 512 512" xmlns="http://www.w3.org/2000/svg"><path d="m167.382812 54.160156v-9.851562c0-24.433594-19.875-44.308594-44.304687-44.308594h-39.386719c-24.429687 0-44.308594 19.875-44.308594 44.308594v9.851562zm0 0"/><path d="m78.769531 211.691406h49.230469v226.460938h-49.230469zm0 0"/><path d="m344.617188 54.160156v-9.851562c0-24.433594-19.878907-44.308594-44.308594-44.308594h-39.386719c-24.429687 0-44.304687 19.875-44.304687 44.308594v9.851562zm0 0"/><path d="m369.230469 123.078125c-13.574219 0-24.613281-11.042969-24.613281-24.617187v-14.761719h-128v14.761719c0 13.574218-11.042969 24.617187-24.617188 24.617187s-24.617188-11.042969-24.617188-24.617187v-14.761719h-128v14.761719c0 13.574218-11.039062 24.617187-24.613281 24.617187-8.15625 0-14.769531 6.613281-14.769531 14.769531v329.84375c0 24.433594 19.875 44.308594 44.308594 44.308594h118.152344c11.339843 0 21.695312-4.285156 29.539062-11.316406 7.84375 7.03125 18.199219 11.316406 29.539062 11.316406h118.152344c24.433594 0 44.308594-19.875 44.308594-44.308594v-329.84375c0-8.15625-6.613281-14.769531-14.769531-14.769531zm-211.691407 329.84375c0 8.15625-6.613281 14.769531-14.769531 14.769531h-78.769531c-8.15625 0-14.769531-6.613281-14.769531-14.769531v-256c0-8.15625 6.613281-14.769531 14.769531-14.769531h78.769531c8.15625 0 14.769531 6.613281 14.769531 14.769531zm177.230469 0c0 8.15625-6.613281 14.769531-14.769531 14.769531h-78.769531c-8.15625 0-14.769531-6.613281-14.769531-14.769531v-256c0-8.15625 6.613281-14.769531 14.769531-14.769531h78.769531c8.15625 0 14.769531 6.613281 14.769531 14.769531zm0 0"/><path d="m256 211.691406h49.230469v226.460938h-49.230469zm0 0"/></svg>