<svg height="512" viewBox="0 0 64 64" width="512" xmlns="http://www.w3.org/2000/svg"><g id="Layer_8" data-name="Layer 8"><path d="m31.45989 29.34644v25.6901a2.24957 2.24957 0 0 1 -2.2466 2.24711h-12.26511a2.24978 2.24978 0 0 1 -2.2476-2.24711v-25.6901a2.20711 2.20711 0 0 1 2.20451-2.20451h12.35029a2.20711 2.20711 0 0 1 2.20451 2.20451zm1.6594-9.53152a9.64881 9.64881 0 0 1 2.445 6.42366v29.07854a6.07792 6.07792 0 0 1 -6.07043 6.07093h-12.82625a6.07814 6.07814 0 0 1 -6.07144-6.07093v-29.07854a9.65262 9.65262 0 0 1 2.445-6.42366l4.44109-4.9862h11.19594zm-.12029 9.53152a3.748 3.748 0 0 0 -3.74367-3.74366h-12.35024a3.748 3.748 0 0 0 -3.74366 3.74366v25.6901a3.79061 3.79061 0 0 0 3.78675 3.78626h12.26511a3.7904 3.7904 0 0 0 3.78571-3.78626zm-4.7597-16.05688v-2.56525h-10.31813v2.56525zm-13.30324-4.1044h16.28935a.87712.87712 0 0 0 .8758-.87629v-4.91707a.87713.87713 0 0 0 -.8758-.8763h-16.28935a.878.878 0 0 0 -.8768.8763v4.91707a.878.878 0 0 0 .8768.87629zm34.36837 29.44078c2.452-1.04764 4.0994-4.03025 4.0994-7.4222 0-4.3023-2.64642-7.80247-5.90008-7.80247s-5.90009 3.50017-5.90009 7.80247c0 3.39195 1.64738 6.37456 4.0994 7.4217a.76976.76976 0 0 1 .46394.77456l-1.64436 18.86365a2.959 2.959 0 0 0 .77459 2.28167 3.06156 3.06156 0 0 0 4.412.001 2.962 2.962 0 0 0 .77559-2.28268l-1.64434-18.86364a.76869.76869 0 0 1 .46395-.77406z"/></g></svg>